<?xml version="1.0" encoding="utf-8"?>
<!-- Generator: Adobe Illustrator 16.0.0, SVG Export Plug-In . SVG Version: 6.00 Build 0)  -->
<!DOCTYPE svg PUBLIC "-//W3C//DTD SVG 1.1//EN" "http://www.w3.org/Graphics/SVG/1.1/DTD/svg11.dtd">
<svg version="1.1" id="Layer_1" xmlns="http://www.w3.org/2000/svg" xmlns:xlink="http://www.w3.org/1999/xlink" x="0px" y="0px"
	 width="27.616px" height="37.842px" viewBox="7.676 11.077 27.616 37.842" enable-background="new 7.676 11.077 27.616 37.842"
	 xml:space="preserve">
<path d="M128.92,341.111c-0.381,0-0.779-0.021-1.199-0.053h1.18C128.92,341.089,128.92,341.111,128.92,341.111z"/>
<path fill="#8E3939" d="M341.584,301.578"/>
<g opacity="0.5">
</g>
<g>
	
		<linearGradient id="SVGID_1_" gradientUnits="userSpaceOnUse" x1="-593.3711" y1="573.7153" x2="-570.5473" y2="571.949" gradientTransform="matrix(1 0 0 1 608 -544)">
		<stop  offset="0" style="stop-color:#EC7838"/>
		<stop  offset="0.1126" style="stop-color:#E96E3A"/>
		<stop  offset="0.4096" style="stop-color:#E45A3D"/>
		<stop  offset="0.7061" style="stop-color:#E04E3F"/>
		<stop  offset="1" style="stop-color:#DF4A40"/>
	</linearGradient>
	<path fill="url(#SVGID_1_)" d="M23.002,47.279c-2.725-0.545-13.608-3.357-14.994-13.646c-0.596-4.43,2.102-7.362,4.71-10.198
		c2.052-2.231,3.99-4.337,3.966-6.952c-0.019-2.084-0.622-4.142-0.958-5.063c2.465,0.561,13.703,3.651,15.046,13.645
		c0.599,4.443-2.231,7.408-4.97,10.273c-2.123,2.224-4.127,4.32-4.109,6.877C21.709,44.291,22.553,46.355,23.002,47.279z"/>
	<path fill="#EC7838" d="M16.108,11.766c3.079,0.77,13.162,3.986,14.417,13.332c0.584,4.325-2.207,7.245-4.903,10.067
		c-2.158,2.26-4.197,4.396-4.178,7.051c0.014,1.839,0.643,3.638,1.118,4.714c-1.358-0.31-3.828-1.009-6.357-2.412
		c-4.645-2.576-7.319-6.25-7.948-10.919c-0.581-4.312,2.077-7.202,4.646-9.996c2.086-2.268,4.056-4.41,4.032-7.123
		C16.919,14.702,16.464,12.865,16.108,11.766 M15.318,11.077c0.064,0.084,1.093,2.716,1.117,5.407
		c0.052,5.712-9.767,9.059-8.674,17.182c1.59,11.812,15.561,13.926,15.705,13.953c-0.065-0.084-1.502-2.715-1.521-5.406
		c-0.041-5.602,10.172-9.059,9.078-17.182C29.484,13.6,15.461,11.105,15.318,11.077L15.318,11.077z"/>
</g>
<text transform="matrix(1 0 0 1 705.1665 425.4771)" font-family="'MyriadPro-Regular'" font-size="12">p {</text>
<text transform="matrix(1 0 0 1 705.1665 439.8765)" font-family="'MyriadPro-Regular'" font-size="12">  margin-bottom: 1.3em;</text>
<text transform="matrix(1 0 0 1 705.1665 454.2769)" font-family="'MyriadPro-Regular'" font-size="12">  color: $light-grey;</text>
<text transform="matrix(1 0 0 1 705.1665 468.6763)" font-family="'MyriadPro-Regular'" font-size="12">  font-size: 1.25em;</text>
<text transform="matrix(1 0 0 1 705.1665 483.0767)" font-family="'MyriadPro-Regular'" font-size="12">}</text>
</svg>
